<?xml version="1.0" encoding="UTF-8"?>
<svg id="Layer_2" data-name="Layer 2" xmlns="http://www.w3.org/2000/svg" viewBox="0 0 264.03 359.17">
  <defs>
    <style>
      .cls-1 {
        fill: none;
        stroke: #000;
        stroke-miterlimit: 10;
        stroke-width: 2px;
      }
    </style>
  </defs>
  <g id="Layer_1-2" data-name="Layer 1">
    <g>
      <path class="cls-1" d="M184.03,157c1.3,9.38,4.91,14.17,8,17,4.78,4.38,8.18,3.79,12,9,.91,1.25,3.37,4.89,4,10,.66,5.38-.95,8.23-2,14-.71,3.88-1.23,9.6,0,17"/>
      <path class="cls-1" d="M191.03,192c-22.36,26.74-37.01,43.74-40,46-.39.3-2.29,1.63-3,4-.53,1.76-.17,3.31,0,4,2.37,9.73,6.62,22.08,6,31-.55,7.86-4.91,13.6-6,15-3.61,4.64-10.03,9.71-18,16-1.58,1.25-3.77,2.95-5,6-.39.96-1.34,3.7,0,10,1.08,5.1,2.62,12.34,8,19,1.53,1.89,3.36,3.73,3,6-.3,1.87-2.02,3.68-4,4-1.87.31-3.39-.81-5-2-2.08-1.54-1.79-2.23-4-4-2.31-1.85-3.41-1.71-4-3-.67-1.47.76-2.43,1-5,.19-2.02-.44-3.53-1-5-3.59-9.37-4.41-16.15-6-16-1.31.12-2.03,4.85-2,8,.02,2.04.36,3.92,1,6,2.36,7.71,6.02,9.27,8,16,1.47,5,1.38,6.28,1,7-1.3,2.43-5.21,3.64-8,3-.9-.21-1.08-.47-3-1-2.84-.78-3.28-.43-4-1-1.38-1.08-.84-3.21-1-7-.1-2.45-.34-2.01-1-7-.83-6.33-.44-6.9-1-11-.49-3.62-1.08-5.29-4-19-.36-1.69-.67-3.27,0-5,1.33-3.43,4.9-3.32,7-6,2.8-3.58.85-9.43-1-15-3.61-10.86-7.43-11.07-8-18-.58-7,3.13-9.76,1-14-2.25-4.47-8.45-5.54-11-6,0,0-22.43-4.06-52-15C14.22,225.3.25,211.37,1.03,210c.19-.33,1.38-.23,32,13,13.73,5.93,14.89,6.52,19,8,15.96,5.74,25.9,9.21,37,6,2.5-.72,9.49-2.84,15-9,2.98-3.33,4.37-6.57,5-8,10.6-24.32,23.15-45.21,37-85,.35-1,.64-1.86,1-3,1.04-3.33,4.19-14.16,4-32-.06-5.16-.44-15.35,0-21,.29-3.74.44-5.61,1-7,.55-1.36,1.28-2.5,1-4-.28-1.5-1.34-2.26-2-3-3.19-3.61-1.59-12.5,3-17,1.52-1.49,2.87-2.01,5-3,13.52-6.25,12.87-9.9,21-12,1.64-.42,6.76-.28,17,0,2.82.08,5.38.19,7,2,1.76,1.97,1.01,4.37,3,6,1.26,1.03,2.76,1.05,5,1,10.45-.22,12.34-1.43,14,0,2.13,1.83,1.56,5.99,1,10-.12.89-.6,4.16-2,7-2.92,5.91-8.74,7.66-15,11-7.09,3.78-17.82,9.5-20,18-1.19,4.63,1.89,10.43,8,22,5.54,10.49,9.62,14.93,12,25,1.15,4.84,1.16,7.87,1,10-.61,8.1-4.36,9.8-5,15-1.44,11.58,13.79,15,14,27,.17,9.51-10.18,13.06-8,22,.31,1.27,1.47,5.09,1,10-.33,3.53-1.22,4.56-2,5-1.52.85-2.63-.6-5,0-2.78.7-3.1,3.15-5,3-1.11-.09-1.17-.93-4-3-2.39-1.75-2.51-1.26-3-2-1.61-2.42.12-6.94-1-8-.22-.21-.48-.39-.48-.39-.79-.53-1.32-.45-1.52-.61-.88-.73,4.22-6.35,5-13,.17-1.44.43-3.93-1-6-1.49-2.16-4.06-2.76-5-3-1.35-.34-10.56-6.23-29-18-1.06-.68-3.98-1.95-6-5-1.24-1.88-1.68-3.65-2-5-.46-1.95-1.01-5.48,0-10"/>
      <path class="cls-1" d="M211.03,147c-3,7.33-10,23.67-13,31"/>
      <path class="cls-1" d="M226.03,56c-.95.17-2.35.46-4,1-4.26,1.39-7.05,3.38-8,4-2.7,1.77-7.37,3.46-16,3"/>
      <path class="cls-1" d="M184.03,47c.59,1.61,5.44,1.06,6,1,1.38-.15,4.66-.52,5-2,.34-1.47-2.3-3.9-5-4-3.43-.13-6.56,3.49-6,5Z"/>
      <path class="cls-1" d="M221.03,42c-.61.33-5.5,3.04-5,5,.1.39.43.81,3,2,3.51,1.63,4.41,1.99,5,2,.01,0,0,0,2,0h1"/>
      <path class="cls-1" d="M189.03,43c-.91.52-1.55,1.9-1,3,.58,1.14,2.08,1.24,3,1,.96-.26,2.01-1.09,2-2-.02-1.37-2.47-2.87-4-2Z"/>
      <path class="cls-1" d="M158.03,50c.82,2.58,2.04,4.09,3,5,1.84,1.74,3.18,1.67,6,4,1.79,1.48,3.13,2.61,3,4-.15,1.71-2.44,2.75-3,3-2.66,1.2-4.26-1.24-9-1-1.37.07-2.3.3-3,1-1,1-1.02,2.44-1,3"/>
      <circle class="cls-1" cx="251.03" cy="13" r="12"/>
      <path class="cls-1" d="M113.03,318c.34-.79.95-1.93,2-3,2.27-2.31,5.16-2.81,6-3,6.54-1.44,11.66-9.04,13-11,2.31-3.38,3.69-7.48,4-18,.23-7.81-.12-19.16-3-33"/>
    </g>
  </g>
</svg>