<?xml version="1.0" encoding="UTF-8"?>
<svg id="Layer_2" data-name="Layer 2" xmlns="http://www.w3.org/2000/svg" viewBox="0 0 296 584">
  <g id="Layer_1-2" data-name="Layer 1">
    <path d="M248.89,2c24.87,0,45.11,20.24,45.11,45.11v489.78c0,24.87-20.24,45.11-45.11,45.11H47.11c-24.87,0-45.11-20.24-45.11-45.11V47.11C2,22.24,22.24,2,47.11,2h201.78M248.89,0H47.11C21.09,0,0,21.09,0,47.11v489.78c0,26.02,21.09,47.11,47.11,47.11h201.78c26.02,0,47.11-21.09,47.11-47.11V47.11c0-26.02-21.09-47.11-47.11-47.11h0Z"/>
    <path d="M180,17c4.96,0,9,4.04,9,9s-4.04,9-9,9h-64c-4.96,0-9-4.04-9-9s4.04-9,9-9h64M180,15h-64c-6.08,0-11,4.92-11,11s4.92,11,11,11h64c6.08,0,11-4.92,11-11s-4.92-11-11-11h0Z"/>
    <path d="M177,24c1.1,0,2,.9,2,2s-.9,2-2,2-2-.9-2-2,.9-2,2-2M177,22c-2.21,0-4,1.79-4,4s1.79,4,4,4,4-1.79,4-4-1.79-4-4-4h0Z"/>
    <path d="M164,24c1.1,0,2,.9,2,2s-.9,2-2,2h-32c-1.1,0-2-.9-2-2s.9-2,2-2h32M164,22h-32c-2.21,0-4,1.79-4,4s1.79,4,4,4h32c2.21,0,4-1.79,4-4s-1.79-4-4-4h0Z"/>
  </g>
</svg>