<?xml version="1.0" encoding="UTF-8"?>
<svg id="Layer_2" data-name="Layer 2" xmlns="http://www.w3.org/2000/svg" viewBox="0 0 331.49 350.37">
  <g id="Layer_4" data-name="Layer 4">
    <g>
      <path d="M322.96,151.27c-.6.1-.5-.76-.6-1.2-.56-2.47-.79-4.78-1.63-7.25-3.56-10.5-13.53-17.04-20.54-25.02l-.2.6c1.82,2.59,3.02,5.54,4.66,8.24,8.97,14.78,18.9,21.67,18.33,40.98-.04,1.49-.83,3.82-.7,5.17.09.96,1.18,3.23,1.46,4.52,2.18,9.99,2.68,19.6-1.91,29.08-.28.58-2.92,5.31-3.7,4.56,5.81-10.3,6.32-22.14,3.62-33.46l-.61.4c-2.46,11.26-7.85,22.29-6.24,34.07.98,7.17,4.46,14.83,10.76,18.68,1.21.74,7.24,2.68,3.06,3.62-6.6,1.48-14.97-4.31-18.41-9.63-.24-.38-1.05-1.17-.45-1.57,3.15,3.98,8.82,8.87,13.89,9.9.41.08,1.33.52,1.23-.22-13.39-4.28-18.74-17.89-18.14-31.05l-1.16,3.88c-.62,6.92.72,8.97,2.68,14.96,3.05,9.35,6.1,16.13,14.64,22.05,1.35.93,8.23,4.04,8.42,4.48.07.18.16,1-.19,1-4.86.34-9.57-.83-14.31-1.61,5.28,5.7,11.23,13.58,12.09,21.58.05.42.28,1.51-.4,1.4-2.84-10.97-9.47-21.75-19.75-27.01,4.58,17.06,22.73,25.84,18.42,45.65-.33,1.53-3.38,10.32-4.91,10-1.29-.28.13-5.21.19-6.25.56-10.39-7.12-19.15-17.32-12.9,14.16,12.11,12.03,33.11,1.8,46.97l-.99-.62c3.4-10.62,3.72-23.84-3.64-32.84,8.57,18.79,2.87,40.92-14.15,52.59-2.83,1.94-7.55,4.5-10.84,5.3-2.07.5-.43-1.58-.2-2.63,3.36-14.97-12.71-19.53-20.58-28.24-2.56-2.83-4.94-6.48-6.25-10.09l-.99.42c-15.68,22.61-51.24,36.72-78.24,35.49-25.01-1.14-52.24-15.8-66.49-36.31-1.88,3.31-4.07,6.48-5.92,9.81s-2.99,6.85-5.25,10.07c-9.01,12.86-26.28,16.44-39.17,7.06-2.9-2.11-3.74-1.57-7.02-2.63-4.8-1.55-10.53-5.32-12.61-9.98.14-1.82,4.04-.57,5.49-.59,8.96-.13,19.57-8.15,25.19-14.73,1.66-1.95,3.63-4.47,4.02-7.07-5.67,6.76-14.06,11.02-22.74,12.45-.58-.27-.76-.73-.66-1.34.05-.27,3.47-2.61,4.26-3.44,1.4-1.48,2.49-3.49,3.82-5.05.06-.3-.42-.28-.6-.2-.57.25-3.87,3.63-5.15,4.52-6.47,4.49-15.96,7.44-23.76,5.44-.76-.19-3.28-.79-2.54-1.92,10.03-3.07,20.11-8.89,24.4-18.94-11.19,11.03-27.72,11.1-39.69,1.2-.65-.54-4.48-4.29-4.59-4.69-.73-2.78,3.01-.11,3.86.18,2.49.86,4.39.96,6.96.49l-7.04-4.44-2.63-3.21,4.97,3.7c1.37.81,5.54,2.74,6.98,2.74s6.91-4.26,7.4-5.44c.36-.86-.53-.53-.9-.5-1.62.14-3.3.62-4.92.72-.54.03-2.52.3-2.63-.42l9.97-2.33c6.69-8.09,8.42-19.2,9.78-29.34l-.39-3.82c-2.88,9.79-11.19,17.53-20.88,20.45-.99.3-4.93,1.61-5.33.31-.05-1.48,1.92-1.99,3.03-3.01,5.93-5.45,9.9-12.22,12.69-19.77-4.81,4.98-11.34,9.12-18.55,7.06-1.25-.36-3.93-1.62-4.42-2.84-.64-1.56,3.54.45,3.92.51,6.26,1.08,12.95-6.71,15.5-11.73,1.67-3.29,4.12-10.89,2.93-14.37-.89-2.62-6.41-7.91-8.17-11.18-.66-1.23-1.57-3.21-1.92-4.54-.1-.4-.51-1.33.22-1.23,1.97,5.98,6.83,10.27,9.69,15.72.82-.11.36-1.97.29-2.51-2.11-15.93-17.23-27.77-16.01-46.48.27-4.12,2.18-7.49,2.72-10.99.81-5.25.14-8.87,2.21-14.32,6.04-15.91,24.92-21.38,30.45-34.87,1.08-2.64,1.57-5.55,2.71-8.17.89-2.04,4.1-6.34,4.46-8.05.33-1.56-.1-5.69.29-8.16,2.32-14.49,14.26-20.39,21.75-31.47,5.24-7.75,7.24-17.2,13.41-24.49,10.33-12.21,23.65-13.21,37.78-17.45,13.24-3.97,25.11-16.4,39.63-8.06C167.65,2.36,175.9-.46,183.68.06c7.15.48,13.79,4.35,20.76,5.85,10.15,2.18,17.68,1.53,27.28,6.98,6.39,3.63,10.27,9.58,16.24,12.79,10.9,5.87,19.47,8.77,25.99,20.38,3.1,5.52,2.64,8.41,3.51,14.23.94,6.33,4.88,9.29,7.68,14.5,4.52,8.41,2.75,17.86,6.84,27.03,5.61,12.55,14.36,18.07,22.72,27.67,5.37,6.17,8.87,13.38,8.25,21.78ZM183.48,315.79c.83.12,5.74.56,6.05.4-1.27-1.73,2.44.2,3.12.31,3.16.51,8.39-.54,11.38-1.72,5.23-2.06,8.15-6.64,9.69-11.89.74-.09.35.86.29,1.3-.46,3.58-2.35,7.08-5.13,9.39-1.19.99-2.67,1.47-3.63,2.61l5.4-.78c1.35.81.09,1.09.04,2,5.55-1.75,10.11-5.71,13.3-10.48.95.68.36.68.13,1.33-1.08,3.09-4.11,5.65-6.79,7.33,2.05-.01,4.8-1.26,6.73-2.15,5.93-2.75,8.55-5.96,10.92-12.06,1.2-3.08,1.54-6.31,2.72-9.38.56,4.74-1.04,9.55-3.22,13.72l-2.83,4.83c6.78-5.28,9.38-13.82,9.48-22.17.59-.04.71,1.45.75,1.86.34,3.55-.8,7.2-1.56,10.64,5.56-5.02,6.75-13.03,6.85-20.16.26-.03.8.54.8.6v7.26c0,.22-1,1.41,0,1.41,2.46-6.27,3.03-13.05,2.83-19.75.58-.08.62,1.1.69,1.52.59,3.5.21,5.43.1,8.74-.02.45-.25,1.53.42,1.42,2.32-5.23,2.74-10.06,2.02-15.72l2.01,5.64c1.89-6.38,2.29-12.72,2.02-19.35.83-.38,1.21,1.15,1.21,1.41v6.25c.63.05.63-.98.77-1.44,1.86-6.06,1.72-12.3,2.45-18.52.09-.74-.12-.65.81-.6v7.26l2.36-10.74c.65-1.59-.01-9.38,1.07-9.82l.6.8,1.61-19.35c-.57.25-.65,2.04-.75,2.68-.5,3.39-.89,6.83-1.27,10.23-.85-.23-.84-1.1-.84-1.81,0-6.72,2.57-15.35,3.26-22.19,1.87-18.7-2.09-39.59-3.22-58.47-.83-13.86.38-28.4-3.34-41.82-2.4-8.65-6.19-18.82-13.44-24.42-2.6.22-8.02,2.85-10.35,2.32-.22-.05-.53-1.22-1.5-.8,8.91-6.04,18.81-11.52,22.18-22.57.75-.09.32.82.22,1.23-2.06,8.68-9.42,14.53-16.35,19.33,7.75-1.82,14.96-6.48,19.15-13.3,1.02-.15.61.68.41,1.22-1.62,4.49-5.96,8.24-10.29,10.07-.06.79,1.22.31,1.63.22,4.5-1.04,10.68-4.54,14.09-7.68,1.51-1.39,5.99-6.59,6.07-8.48.19-4.5-7.3-14.3-10.91-17.13,2.54,5.5,2.39,11.1,1.2,16.94-.11.13-.8-.51-.8-.6v-9.68c0-1.06-1.57-5.19-2.2-6.26-2.86-4.86-10.71-7.22-15.53-9.66.76,1.91,1.97,3.62,2.72,5.54,1.61,4.06,2.91,10.2,1.73,14.44-.15.55-.05,1.25-.82,1.39-.03-4.47-.39-9.03-1.83-13.29-3.86-11.41-15.71-21.31-27.2-24.41-6.13-1.65-12.52-1.62-18.62-3.14-5.15-1.29-9.91-4.1-15.23-4.72l5.86,4.42c11.28,12.47,18.33,30.4,10.78,46.71-.26.57.24,1.1-.91.88,2.39-7.51,3.44-15.47,1.66-23.23-2.09-9.12-10.76-24.67-19.93-28.05-7.29-2.68-14.54.38-20.43,4.72l5.05,4.22c3.45,3.15,6.75,7.74,8.45,12.11.17.44,1.65,4.4.81,4.43-4.29-9.34-11.26-18.69-21.72-21.43-12.06-3.16-18.96,4.57-29.18,8.42-7.06,2.66-14.66,3.59-21.78,6.04-9.22,3.16-18.64,8.64-23.07,17.65.43.69.89-.16,1.21-.4,1.45-1.1,2.89-2.29,4.47-3.19,17.86-10.19,43.58-2.17,58.42,10.25-.75.2-1.12-.29-1.66-.55-3.96-1.89-7.65-4.51-11.77-6.37-15.93-7.2-35.77-10.36-49.86,2.28-5.26,4.72-7.25,10.67-9.67,17.14,10.12-10.34,26.53-12.29,39.89-7.85,8.61,2.86,15.82,9.23,24.76,11.53,4.98,1.28,11.43.97,15.17,4.78-5.98-2.04-12.37-1.99-18.35-4.02-8.18-2.78-15.08-8.73-23.49-11.18-9.74-2.84-21.19-2.29-30.19,2.64-11.13,6.1-11.44,15.46-17,25.74-.53.99-1.69,2.32-2.08,3.16-.16.35-.14.79.4.4,3-2.17,5.84-6.56,8.46-9.29,8.69-9.08,16.86-13.33,29.55-8.97,5.81,2,11.36,5.56,17.79,5.51.57,0,6.75-.89,5.89-1.57-7.5-.78-11.69-7.86-18.55-10.28-3.93-1.38-8.01-1.52-12.08-1.02,2.03-1.89,6.38-1.88,9.03-1.57,9.62,1.14,15.36,12.07,24.62,11.65l5.05-1.2c-5.65-.87-9.89-4.99-14.64-7.74-2.56-1.48-5.89-2.39-7.93-4.36,7.6.53,13.15,6.94,19.88,9.75,1.63.68,5.71,1.94,7.33,1.94h5.85c-.52.83-2.89,1.13-3.83,1.2-1.43.1-4.5-.51-5.14-.34-.44.12-1.3,1.09-2.19,1.47-1.57.67-3.75.57-4.95,1.1-1.91.85-7.24,6.76-9.28,8.46-2.4,2-5.38,4-8.38,4.92-7.6,2.33-18.96.93-25.08-4.32,8.47,3.37,18.91,5.66,27.54,1.54,3.87-1.85,7.11-5.64,10.35-8.39-15.35,2.17-24.18-12.26-39.86-4.59-6.27,3.07-10.04,9.04-15.01,13.62-5.7,5.25-9.25,7.29-14.23,13.99-11.3,15.21-7.72,28.14-16.16,42.71-5.89,10.16-15.5,15.19-22.77,24-2.06.76.64-2.62.99-3.04,10.24-12.56,21.24-15.93,25.42-34.25.09-.41.54-1.31-.22-1.22-6.41,13.28-19.6,21.53-26.68,34.4-3.61,6.57-2.49,8.36-2.75,15.4-.06,1.54.03,3.09,0,4.63l-.85-7.41-.75-2.67c-3.34,14.1,4.42,26.69,10.48,38.71.75.09.32-.82.22-1.23-.48-1.98-1.68-3.94-1.83-6.03l2.83,5.84c5.7,14.02,5.29,30.87-6.24,41.75l-5.45,3.61c7.28-.33,13.57-6.58,16.2-13.03,2.39-5.86,2.52-12,1.94-18.21-.11-1.17-1.25-6.17-1.01-6.66.08-.16.48-.5.61-.4,4.81,11.69,1.75,24.63-3.15,35.76-2.72,6.19-6.29,12.19-10.95,17.06,8.2-2.93,15.04-9.24,18.34-17.34,1.33-3.27,1.78-6.77,2.88-10.09l1.34.04c1.52,13.55-1,27.6-6.83,39.9,6.79-5.07,7.67-13.9,9.79-21.45.12-.41.1-1.22.68-1.13,0,6.98-2.83,17.53-7.86,22.58-1.34,1.34-3.42,2.06-4.6,3.06-.79.66-1.46,2.19-2.24,3-1.62,1.68-3.39,3.2-5.04,4.83h6.65c8.75,0,19.73-10.1,23.79-17.33,5.25-9.34,5.52-14.19-.04-23.36-8.68-14.32-24.29-23.8-20.62-43.27,1.84-9.74,10.03-13.35,12.29-22.4-4.35-12.13-4.82-24.63-2.12-37.19.51-2.39,3.08-11.76,4.63-13.11.5-.44.9-.36.81.41-.3,2.54-2.47,7.17-3.2,10.12-2.98,12.19-3.23,23.46.27,35.56,1.16,4,3.03,7.77,4.14,11.79l-1.29-.93-2.34-4.71c-2.77,8.56-9.93,11.9-11.58,21.29-4.23,24.11,25.85,35.83,24.42,54.67-1.14,15.02-16.27,29.16-31.17,30.11-2.2.14-5.18-.57-6.83-.42-2.5.24-6.37,3.18-9.51,1.61,12.41,10.43,26.58,9.38,38.31-1.4,1.33-1.22,2.08-3.85,4.42-3.44-1.2,7.52-7.1,14.85-13.17,19.28l-10.21,5.72h7.46c.99,0,5.7-1.81,6.92-2.35,6-2.64,10.57-6.94,14.85-11.76,2.83-.63-1.24,6.94-1.65,7.63-1.09,1.82-2.49,3.42-3.8,5.07,1.39.06,3.26-.88,4.58-1.47,4.48-2,14.97-8.94,15.16-14.3.06-1.82-4.33-7.11-5.48-8.97-5.21-8.39-8.5-14.62-9.03-24.84-.32-6.05.87-12.11.42-18.16-.93-12.56-10.19-24.86-3.83-37.31.66.03,1.11-.31,1,.6-.21,1.77-1.4,3.88-1.6,6.07-.74,7.99,2.15,12.92,3.99,20.19,2.76,10.87,3,19.25,12.34,27.17,1.66,1.41,4.85,2.92,6.01,4.47,1.6,2.14,1.55,5.74,2.89,8.4,3.18,6.33,11.36,10.21,18.29,9.73.3,1.02-.87.99-1.51,1.09-7.77,1.14-16.27-4.69-18.95-11.87-.69-1.86-.84-4.58-1.92-6.14-1.18-1.7-6.2-4.5-8.24-6.68-2.72-2.91-5.39-7.28-6.47-11.07l-.8,5.47c-.32,8.84.45,17.56,4.77,25.44,7.45,13.59,24.45,20.99,37.36,9.81.08,2-3.25,4.09-5.09,4.99-7.97,3.86-17.64,1.69-24.53-3.37.96,2.28,2.4,4.37,3.1,6.77,3.47,11.87-4.91,24.36-17.22,25.29,8.05-2.97,15.24-9.11,16.14-18.13l-.41-4.25c-1.01,6.04-5.32,10.77-9.67,14.72-6.65,6.03-15.31,11.28-24.59,10.48,7.05,8.28,17.28,9.24,27.49,7.75,11.06-1.62,19.47-7.72,26.11-16.42-1.03,3.89-4.79,7.9-7.87,10.47-7.99,6.67-18.22,8.49-28.41,8.48.32.64,1.62,1.25,2.26,1.56,13.04,6.34,27.55,2.5,35.39-9.66,3.94-6.1,12.28-21.39,13.82-28.11,1.85-8.09-.27-18.42-4.5-25.5-1.16-1.94-2.98-3.54-3.84-5.63.44-.43,3.06,2.38,3.43,2.82,4.49,5.24,7.08,13.32,7.05,20.16.65-.07.75-1.72.8-2.22,1.94-20.85-3.41-37.15-6.73-56.97-.77-4.56-1.1-9.22-1.73-13.79-4.4.51-7.61-2.13-10.25-5.27l-3.85-6.83c.45,17.01,21.51,30.69,13.89,48.78-.28.67-.38,1.89-1.39,1.62,1.71-5.22,1.67-10.88.2-16.12-3.13-11.14-12.55-19.51-14.26-30.9-.96-6.38.51-12.54.78-18.89s0-13.57-.88-20.12c-2.35-17.56-10.97-40.58,4.09-54.69-4.58,1.39-9.62.91-13.83,3.3-9.52,5.42-11.51,17.05-10.78,27.15.47,6.48,3.64,12.86,2.83,19.54l-3.96-16.8c-1.99-11.52.27-24.21,10.42-31.18-16.51,2.88-24.18,19.49-25.8,34.67-.71.09-.38-.91-.4-1.4-.54-12.26,7.06-27.09,18.27-32.54,13.45-6.53,24.8-.41,38.36-12.44,4.26-3.78,5.22-6.72,8.1-11.25.21-.33,1.68-3.07,2.19-2.45.37.45-1.65,4.6-2.09,5.36-2.63,4.52-8.08,10.48-12.45,13.35-3.04,1.99-6.64,3.14-9.43,5.49-9.57,8.06-8.68,20.47-7.87,31.84,1.62-.19,3.08.6,4.41,1.44,1.81,1.15,4.94,5.09,6.08,5.61,3.02,1.39,5.94-3.32,7.58-5.31l17.4-26.55c.06-1.23-.43-.28-.73.08-6.5,7.66-12.27,18.32-23.45,19.08l7.38-3.7c5.31-3.29,12.12-13.13,14.59-18.87.22-.51,1.17-2.62.21-2.82-2.94,4.53-7.35,9.56-11.98,12.42-.68.42-2.13,1.39-2.94,1.09,4.64-3.67,7.89-6.62,10.56-12.02,2.06-4.17,2.79-9.13,5.56-12.78l-4.02,12.9,4.43-4.84c.35,3.56-1.5,6.76-2.41,10.08l4.64-5.24.99.6c-.54,2.05-1.88,4-2.61,5.85-2.26,5.71-4.07,7.45-6.86,12.49-6.57,11.9-4.51,19.54-5.44,32.06-.25,3.37-1.81,7.13-2.01,10.14-.03.5,1.21,1,1.21,1.96v15.52l2.01-4.84,2.42,16.74-.39,3.42-2.43-14.51-1.41,5.23-.53-.67c-.47-6.87-1.93-13.81-.88-20.69-.61.09-.89,1.38-1.1,1.91-2.77,7.03-2.85,14.02-2.11,21.47l1.2-.8c-.02,6.77.81,13.58,1.66,20.31.06.49.17,2.21.76,2.27v-10.69c0-.07.54-.63.8-.6.84,9.69-.19,19.6,2.83,29.03.72.09.39-.91.35-1.36-.14-1.57-1.19-4.4.45-5.49,1.33,10.94,4.54,21.51,11.76,29.97.3.35.79,1.31.73.08-2.7-5.17-4.66-11.26-4.23-17.14l3.93,13.01c2.57,6.84,6.7,12.84,12,17.84.9.43.22-.59.08-.89-1.78-3.9-3.7-7.36-4.43-11.71-.13-.8.49-.73.71-.51.2.2,1.45,4.33,1.83,5.23,2.86,6.71,6.44,13.17,12.28,17.75-.53-2.08-1.4-4.08-1.6-6.26-.07-.76-.48-3.45.8-3.02-.25,3.09,2.59,12.48,5.45,13.71.51.22.7-.04.58-.57-.31-1.31-1.12-2.73-1.41-4.24-.08-.42-.53-1.32.22-1.23,1.09,2.32,2.03,6.36,3.63,8.27.95,1.14,3.95,3.36,5.29,4.39,1.19.92,2.58,2.14,3.99,2.66-3.19-3.41-6.28-7.14-7.97-11.58-.21-.54-.79-1.64-.3-2.12,4.88,8.55,11.12,17.17,21.17,19.75-1.89-2.02-3.91-3.77-5.18-6.31-.18-.36-.84-1.06-.26-1.35,3.61,4.19,8.02,9.45,13.91,9.48-3.78-2.82-7.17-6.77-8.28-11.47-.1-.41-.53-1.32.22-1.23,2.36,6.52,6.92,11.04,12.9,14.31l-3.63.2c.25.35.27.98.4,1.21-3.23-.46-9.92-2.01-12.77-3.16-6.87-2.77-13.3-7.37-18.88-12.16l-.6.2.8,1.41c-1.04.12-1.85-.64-2.61-1.22-6.2-4.76-11.08-13.14-17.35-18.13l-.4,1.21-12.1-15.32-.2.8-3.69-4.97-5.97-11.16c1.12,12.09,3.06,24.27,1.56,36.44-.24,1.95-.71,4.51-1.27,6.39-.67,2.25-4.69,9.1-4.12,10.77.29.86,1.82,2.76,2.46,3.61,16.06,21.45,47.47,34.9,74.13,32.3,23.74-2.32,53.74-15.65,66.56-36.49-1.18-3.7-2-7.57-1.86-11.49l-5.63,9.08c-3.21,1.73-5.2,5.3-8.07,7.66-3.61,2.96-8.64,4.62-12.9,6.24l.8-1.41c.06-.31-.37-.24-.61-.2-2.91.51-7.06,2.36-10.28,3.03-.82.17-5.66,1.32-5.64,0l2.01-1.41c-4.96-.27-9.72,1.14-14.71.8-1.98-.14-7.7-1.13-8.67-2.82ZM287.49,95.22c-1.17-5.03-.81-10.28-2.31-15.23-2.55-8.39-11.45-13.9-9.78-23.89-2.42,3.41-4.72,6.49-8.09,9.04-4.04,3.05-8.75,5.13-13.67,6.29-.45.58,2.94,1.59,3.32,1.71,4.06,1.31,8.39,1.74,12.5,3.22,6.72,2.43,13.05,7.46,16.43,13.81.09.27-.38.29-.6.2-.36-.16-4.38-4.93-5.44-5.85-6.09-5.31-13.47-7.93-21.35-9.29-.44-.08-1.37-.47-1.63.02,7.35,11.21,21.62,11.02,30.63,19.96ZM50.85,95.62c2.69-4.44,6.65-8.06,9.61-12.37,4.39-6.41,7.3-13.75,9.75-21.09-8.48,9.3-18.61,16.88-19.74,30.45-.05.63-.33,2.82.39,3.02ZM290.86,105.97c-.81-1.56-.86-3.27-1.68-4.98-5.37-11.12-17.95-11.39-27.08-17.87-.3.32,2.84,5.11,3.3,5.77,4.28,6.21,10.06,12.02,15.86,16.8,5.88,4.85,12.69,8.69,17.33,14.93l-2.82-6.46c-1.16-2.77-3.67-5.81-4.9-8.19ZM312.48,268.61c-12.76,2.15-22.93-10.53-26.21-21.56-6.82-22.95,7.6-39.58,14.63-59.97s12.16-39.88.9-59.2c-7.21-12.36-18.61-17.1-28.24-26.6-4.11-4.06-7.47-8.83-11.07-13.32,4.14,13.62,13.75,25.08,25.79,32.46-1.12.27-3.02-.67-4.05-1.19-7.11-3.66-12.48-10.62-17.31-16.75,1.02,11.26,4.03,22.1,7.26,32.86-.5.42-1.16-1.65-1.28-1.94-1.94-4.49-3.92-9.56-4.77-14.38-.7-.09-.38.92-.4,1.41-.18,4.5-.12,9.56.51,14.01,2.03,14.24,11.87,25.1,11.94,40.07l-.76,4.59c-.08-7.31-1.48-14.53-4.37-21.24l-6.11-13.84,2.83,38.09-.42,17.96,6.52-13.84c4.28-9.28,6.28-19.42,3.53-29.48-1.19-4.34-3.63-8.52-5.21-12.73.97-.22,1.26,1.08,1.68,1.74,6.79,10.77,8.07,21.02,4.57,33.33-2.84,10.01-9.71,18.45-11.38,28.94-.71,4.49-.44,9.08-.92,13.6-1.55,14.42-4.13,23.31,1.42,37.7,4.29,11.13,14.98,21.09,27.71,19.27,6.2-.89,10.18-5.83,17.34-2.64,5.63,2.51,6.54,7.18,7.65,12.51.08.39.15,1.21.69,1.11,1.21-4.87,1.57-8.48.29-13.39-2.88-11.09-12.98-18.44-16.82-29.14-.63-1.76-.99-4.87-1.86-6.16-.99-1.46-4.53-3.99-6-5.74-5.55-6.6-8.12-15.24-8.26-23.79l-4.13,10.17c-5.48,16.78.1,39.01,17.62,45.9l6.67,1.18ZM11.75,158.12c6.84-14.09,21.68-22.56,27.82-37.09-10.37,11.08-26.27,18.42-28.17,35.33-.05.44-.4,1.83.35,1.76ZM320.95,168.21v-6.65c0-.95-.8-4.21-1.1-5.36-2.12-8.29-8.01-15.39-12.81-22.26-.08,2.05,1.13,4.26,1.62,6.45.64,2.91.7,7.72,1.64,10.05,1.06,2.64,4.56,5.93,5.73,8.78l4.92,8.99ZM100.03,189.98c-.09-1.89.93-3.61,1.32-5.34,1.12-4.99,2.77-12.48,3.12-17.45.3-4.33-.3-9-.01-13.32.37-5.49,2.22-10.56,4.45-15.51-3.59,4.1-5.04,9.66-8.47,13.9-1.52,1.88-3.78,4.38-6.44,3.84l1.61,1.82-.83.82c3.74,9.88,4.27,20.16,4.46,30.63l.8.6ZM93.73,212.82c.95.9,4.75,3.25,5.93,2.39.67-.49.09-5.72-.03-6.88-.71-7.23-1.53-14.16-2.01-21.38-.66-9.94-.83-26.49-8.67-33.67-.75-.69-4.59-3.24-5.44-2.42l.59,4.04c4.21,1.7,6.95,6.22,8.75,10.2,1.13,2.5,2.69,6.04,2.15,8.74-1.51-3.63-5.57-4.24-7.46-7.46-.45-1.43,4.89,3.06,5.24,2.02-2.13-4.01-4.25-8.22-7.48-11.47-.31-.31-.63-.85-.99-.22,1.18,6.51,2.84,13.13,3.23,19.76.12,2.08-.39,10.9.21,11.89.29.48,1.96,1.14,2.62,1.82.82.85,3.25,6.67,4.65,4.65.78-1.13-3.1-7.36-3.05-9.87.02-.91,2.15-7.19,2.63-7.89.41-.6.95-.1,1.01.21.31,1.6-2.16,5.41-2.04,8.06s5.37,10.42,1.35,11.43c-2.97.74-4.84-6.26-7.37-7.2.06,2.71-.85,6.06-.84,8.67,0,2.98,4.83,12.48,7.03,14.57ZM318.93,227.48l-3.57-6.31c-6.91-16.06.59-28.6,3.94-43.92,1.06-4.85.83-4.87-1.11-9.32l-8.13-14.64c-.14,6.03-1.05,11.99-2.54,17.83-2.39,9.37-5.65,19.15-9.49,28.01-2.83,6.54-4.74,7.18-4.1,15.25,1.34,16.69,14.57,30.59,31.44,31.66l-7.45-5.25c-8.44-7.83-12.39-18.67-14.6-29.75-.69-3.48-1.56-6.98-1.33-10.56l2.01,7.66c-.19-4.64,1.84-8.9,2.83-13.3h1.2c.03,10.98.33,24.27,9.47,31.86.45.38.65.98,1.41.8ZM283.86,345.22c.49.4,5.14-3.06,5.83-3.64,16.25-13.62,19.54-36.43,7.88-54.23-5.78-8.83-9.22-6.8-16.5-12.12s-11.44-14.22-13.54-23.15l-1.4-8.07c-.52,5.16-2.97,9.93-3.22,15.12-.73,15.23,14.58,28.58,21.43,41.06,7.82,14.23,9.98,31.5-.47,45.03ZM286.28,339.58c6.51-13.79,2.69-28.76-5.07-41.09-5.73-9.11-13.63-16.9-17.7-27.06l-2.62-8.46c-.34,3.16-2.13,5.99-2.72,9.17-1.79,9.7,1.41,20.06,5.54,28.72l-2.27-2.36c-2.29-3.54-3.35-7.69-4.39-11.73l-1.39-9.69c-1.61,7.48-7.06,13.22-6.4,21.12.55,6.63,3.92,14.17,8.21,19.21,6.9,8.11,22.15,13.43,21.99,25.98-.02,1.59-2.25,7.71,1.54,3.18,3.21-3.84,4.26-10.72,3.1-15.48-1.78-7.29-8.35-12.7-12.7-18.35-1.97-2.55-4.55-5.75-4.65-9.06,5.35,9.91,19.21,18.68,19.57,30.83.04,1.43-.31,2.39-.42,3.65-.04.44-.29,1.5.39,1.4ZM310.06,316.59c5.53-12.84,4.07-27.18-6.46-36.9-3.04-.14-6.03,1.54-9.26,1.02,2.07,1.86,3.49,4.67,5.24,6.65,1.03,1.15,2.8,2.22,4.02,3.64,5.52,6.45,6.88,16.04,6.11,24.23-.04.45-.37,1.45.35,1.36Z"/>
      <path d="M224.2,16.19c-.09,7.55,3.83,14.32,4.79,21.62,1.75,13.3-3.74,25.44-12.85,34.83.28.25,3.88-2.27,4.4-2.65,6.26-4.69,10.66-11.52,12.54-19.12.67-.11.44.98.41,1.42-.71,11.76-13.75,21.33-23.53,25.67-3.06,1.36-6.63,3.22-9.95,2.96l4.03-5.04c-2.53,1.35-5.03,3.37-8.06,3.22l.4-1.61-4.84,1.2c6.86-5.83,12.39-13.17,15.32-21.77.79-.06.31,1.22.22,1.63-1.25,5.43-4.71,11.26-8.69,15.1.4.66.89-.13,1.21-.4,6.91-5.8,11.24-15.06,13.71-23.59.76-.09.28.8.21,1.22-1.56,10.27-7.55,19.2-15.13,26,.78.24,2.12-.82,2.79-1.24,14.93-9.47,20.98-34.32,21-50.98.73.15.75.79.82,1.4.74,6.63-.77,15.64-2.55,22.08-3.22,11.67-9.32,22.95-18.03,31.36,3.94-1.28,8.16-4.27,11.29-7.05,10.74-9.53,15.95-23.07,13.1-37.31-.99-4.93-4.77-13.39-3.48-18.01.19-.69-.3-1.12.86-.93Z"/>
      <path d="M71.41,166.6c-.97,8.39-2.32,15.79-1.1,24.28,3.29,22.84,26.45,36.19,27.72,59.77.18,3.29-1.3,14.04-4.7,15.49-.49.21-1.17.22-.95-.54.35-1.22,1.36-2.52,1.57-4.08,1.42-10.85-7.7-26.16-14.32-34.4-2.81-3.5-6.08-6.55-9.24-9.71l-.6.2c6.71,6.12,10.82,16.65,6.25,25.21-1.75,3.28-6.75,7.73-10.28,5.03-.18-1.13,1.23-.15,2.1-.26,3.36-.43,6.89-4.84,7.86-7.91,2.41-7.63-1.39-15.47-6.54-21.06-1.89-2.06-3.98-3.43-5.84-5.85-.23-.3-3.25-4.21-1.43-3.41,3.15,3.13,7.14,5.19,10.48,8.07,8.57,7.4,18.25,21.33,21.38,32.25,1.06,3.71,1.88,7.45,1.01,11.29.65-.34.87-2.09,1.02-2.81,2.33-11.13-3.06-23.01-8.92-32.24-3.66-5.77-8.38-10.9-11.78-16.85-4.6-8.04-7.19-17-6.94-26.33l-10.29,14.5c-.93,2.15-1.89,4.13-1,6.47-3.01-2.75-.68-6.45,1.05-9.24,2.63-4.25,6.81-7.77,8.99-12.38s1.74-9.65,3.4-14.36c.25-.7.01-1.35,1.08-1.12Z"/>
      <path d="M152.04,138.77l-2.41,1.6c1.83.19,3.66-.82,5.42-.82,4.8.02,14.7,1.34,19.66,2.14,2.93.47,6.61,1.37,8.99,3.11l.2-1.2h.8s1.63,3.62,1.63,3.62c1.35-.78-1.27-2.64-.61-3.62,1.6,1.66,2.52,3.84,3.03,6.04l1-5.24.2,5.24,1.61-4.43c.79,0,.37,1.66.29,2.11-.33,1.89-1.18,3.08-1.92,4.74l-.79-.19.19-1.42-1.41,1.61v-2.42s-.6,1.61-.6,1.61c-1.56-2.62-1.62-5.7-5.24-6.45l4.23,6.26c-4.86,1.1-10.89.49-15.87-.25-7.03-1.04-18.13-5.21-24.97-2.28-.92.39-.49,1.21-2.94,1.47-3.22.34-6.94.12-10.23.46l4.43,1.2-10.88,1.21,4.03-2.42-1.2-1c-.08-1.63,19.82-12.43,23.37-10.68ZM150.63,145.22c-1.99-.2-4.23.14-6.25,0l2.02-1.01-2.02-1c4.26-1.14,8.51-1.04,12.71.38.23.08,2.96.92,2.2,1.63-2.31-.76-5.03-1.43-7.46-1.61-.55-.04-2.49-.35-2.61.39,6.82.37,12.99,3.74,19.75,4.44l-4.43-3.03c-4.96-2.49-10.36-3.91-15.88-4.51l-12.34,5.52c2.36-.07,4.71-1.07,7.05-1.22,1-.06,1.15.25.06.46l-3.07,1.16,12.49-.81c.02-.38-2.02-.78-2.22-.8ZM180.26,149.25c-3-1.38-5.21-3.45-8.36-4.74-4.13-1.69-8.6-2.33-13-2.91l6.97,3.3c1.82.77,3.5,2.98,5.16,3.71,3.71,1.63,9.34.43,13.26,1.86-1.61-4.68-6.48-6.7-11.13-7.21-.44-.05-1.83-.4-1.76.35,3.51.67,6.73,2.83,8.87,5.65Z"/>
      <path d="M265.72,148.85l-3.22-1.82,2.41-.19c-2.63-.87-5.71-.8-8.32-1.55-.56-.16-.54-.8-.83-.86-4.64-1.04-15.98,2.7-21.08,3.82-4.53,1-9.15,1.86-13.7,2.61l-.21-1.2-1.81,1.61c.41-1.85,1.13-3.73,2.09-5.36.77-1.3,2.59-3.91,3.95-3.71-.74.87-2.49,2.14-2.22,3.43,1.34-1.32,2.66-2.78,4.27-3.79,3.26-2.04,21.78-6.34,26.02-6.64,1.31-.09,2.14.02,3.37.35l-2.42-1.6c3.05-.25,7.44,2.23,9.45,4.45,2.51,2.78,3.42,7.01,2.23,10.46ZM250.8,137.56l-4.17,1.26-13.56,7.6c3.97-.67,8.43-1.49,12.2-2.91,3.98-1.51,8.24-5.34,12.54-5.12,1.6.08,3.22,1.11,4.69,1.59-2.71-3.28-8.36-2.8-11.96-1.28-1.66.7-2.91,1.92-4.56,2.49l4.84-3.62ZM243.14,139.58c-5.26.25-9.28,2.3-13.7,4.84l1.2,1-2.01,1.82,14.51-7.65ZM249.19,142.8h8.67c.66,0,2.53.81,3.43.81l-.41.8c1.28.07,2.43.64,3.63,1.02.49.16.56.42.41-.41-.67-3.73-7.25-3.22-10.08-2.62-.19-1.16.26-.66.93-.86,2.29-.66,3.98-.52,6.32-.35-.23-.61-1.93-1.21-2.49-1.33-2.17-.49-3.86-.37-5.96.34l-4.45,2.61ZM233.07,141.19c-4.33.19-8.37,3.2-10.48,6.85l10.48-6.85Z"/>
      <path d="M193.03,234.2c-.41.36-.91.61-1.48.53.3-.69.95-2.81,0-3.22.28,1.97-7.03,7.13-7.66,6.45l.6-2.42c-1.6,1.56-4.23,4.19-6.26,5.03-1.69.7-.9-.92-1.8-.59l-1.82,2.01c8.69-1.18,16.37-6.67,24.49-9.17,6.63-2.04,7.03,1.11,11.59,1.12,1.81,0,3.58-1.63,5.34-1.93,5.3-.9,9.94,4.22,14.47,6.3,2.06.95,4.06,1.11,5.78,2.27-5.19,3.4-12.59-.01-18.34.18-2.93.1-5.51,2.04-8.47,2.07-2.21.03-4.65-1.04-6.86-1.24-9.52-.82-19.3,4.07-28.94,2.07l-4.92,5.57c-1.53.04.56-3.96.8-4.43,1.4-2.74,3.82-5.18,5.65-7.65l-1.41,4.03,5.04-5.24-1.21,3.62c3.72-2.07,6.77-5.01,9.68-8.06l-1.62,4.83c3.05-1.97,4.9-5.01,7.26-7.66.61.89-.07,2.16-.16,3.07-.04.45-.37,1.45.35,1.36l5.45-10.48c.01,2.97-1.54,6.44-3.25,8.84-.31.43-2,2.44-2.32,2.72ZM231.05,239.99c-4.83-.86-9.44-7.72-14.54-6.68-1.89.39-3.73,2.15-5.86,2.2-2.7.07-5.84-2.73-8.84-1.99l-21.55,8.88c5.68.11,11.54-2.05,17.12-2.43,6.75-.46,12.19,2.63,18.56-.39,5.02-.2,9.98.45,14.93,1.2l.19-.79Z"/>
      <path d="M118.58,79.9c1.16,1.2-6.05,11.2-7.27,12.69-3.59,4.38-8.63,8.98-13.99,11-13.66,5.15-22.63-7.49-36.79,4.33-4.22,3.52-6.19,7.65-9.58,11.38-.4.44-.43,1.13-1.3.92,2.27-14.59,14.42-28.79,29.68-30.19,11.74-1.08,18.94,1.94,30.25-4.42,2.59-1.45,5-3.98,7.24-5.26.57-.32,1.08-.56,1.76-.46ZM52.06,116.59c3.27-6.68,11.56-14.43,19.2-15.28,8.66-.96,16.35,4.07,24.86,1.08,7.05-2.48,12.99-9.13,17.15-15.11.38-.55,2.76-3.87,2.49-4.16-3.82,3.08-8.05,5.74-12.81,7.15-12.06,3.56-22.75-1.65-34.77,5.15-6.71,3.79-13.94,12.63-16.33,19.96-.13.4-.55,1.3.21,1.21Z"/>
      <path d="M183.89,77.07l1.2-9.67-1.92,4.74c-.31.98-.59.79-.5-.1.25-2.48,1.76-5.27,2.01-8.08.85-9.49-2.11-19.68-6.44-28.01.66-.66,3.05,3.69,3.3,4.16,5.08,9.87,5.91,22.9,4.37,33.74,3.01-4.15,5.22-10.05,5.99-15.18,2.51-16.76-6.37-34.09-18.7-44.89l-7.44-4.85c2.61-.09,5.31,1.82,7.38,3.3,16.98,12.08,26.74,39.04,16.47,58.26-.61,1.15-3.45,5.58-4.28,6.21-.49.37-.81.47-1.43.38Z"/>
      <path d="M143.17,164.17c-.2-.94.13-.65.52-.9,5.12-3.33,17-7.57,23.05-7.98,5.05-.35,8.04.29,12.1,3.25.48.35,3.71,3.15,3.86,3.4,1.77,2.99-2.12,2.05-3.8,2.29-8.44,1.18-12.42,4.55-22.04,2.59-2.55-.52-6.23-2.72-7.93-2.96-1.58-.22-3.84,1.34-5.76.32ZM167.76,158.13h-4.43c-1.45,9.27,11.81,9.48,11.24.45l-1.58-.28c-.39,4.58-4.89,6.21-6.84,1.64,1.05-.44,1.87-.31,1.61-1.81ZM166.15,166.59l-3.31-2.94-1.32-5.11-11.09,4.43c-.34.44,2.72,1.76,3.12,1.91,1.25.49,5.22,1.71,6.35,1.71h6.25ZM181.47,162.96l-5.64-3.62c.29,1.95-.52,3.34-1.61,4.83l7.26-1.21Z"/>
      <path d="M37.15,150.87c.75.71-5.82,8.73-6.54,9.79-7.68,11.35-10.27,22.1-7.38,35.79.34,1.61,3.37,10.31,3.03,10.88l-1.14-.08c-1.59-3.26-2.24-7.36-3.74-10.56-2.47-5.27-7.05-7.95-7.6-14.57-1.04-12.4,9.3-18.19,16.93-25.39,1.58-1.49,3.35-4.2,4.81-5.27.55-.4.81-.76,1.63-.59ZM27.88,161.36l-4.44,3.42c-3.41,3.58-6.78,7.67-7.94,12.63-1.5,6.42,1.76,11.21,5.32,16.21-.05-3.04-.71-6.01-.62-9.09.15-5.32,1.79-11.73,3.98-16.59,1.04-2.31,2.48-4.38,3.7-6.58Z"/>
      <path d="M256.45,160.54c-2.09.63-3.83-.23-5.79-.84-4.09,6.69-13.04,5.78-19.69,4.35-.49-.1-1.95-.27-.51-.7l7.45.82c-2.8-2.06-3.65-4.64-3.82-8.05-4.75,1.02-8.95,3.25-13.11,5.64-.11.66.54.38,1,.4,1.31.06,2.63-.14,3.94.1l3.12,1.1c-1.45.21-2.8-.44-4.23-.44s-8.14,1.59-4.43-1.97c2.15-2.06,7.8-4.96,10.67-5.86,9.52-2.99,18.28-1.79,25.4,5.44ZM238.31,157.73c.49.27,2.66-.85,1.62-1.42l-4.04-.2c-.59,4.31,1.65,7.44,6.21,6.82,2.94-.4,6.56-5.26,2.25-6.01.55,4.47-5.26,5.16-6.05.81ZM250,158.94l-2.42-.81c.07,1.46-.55,2.78-1.21,4.03.66.62,3.78-3.02,3.63-3.22Z"/>
      <path d="M160.91,68.2c.36-.33-6.37-5.41-5.04-7.25l2.42,2.82.2-.6-8.42-15.78-.25-1.77c7.11,6.43,7.53,18.05,15.52,23.39.26-.29-2.95-4.15-3.29-4.98-.21-.52-.22-1.09.27-1.06s1.92,2.35,2.42,2.81c.54.5,1.62,1.33,2.25,1.78.97.7,4.05,2.67,5.01,3.06,1.63.65-.96-2.97-1.01-3.22,1.04-.8,7.2,4.92,6.25,6.85l-2.83-3.22c-.59.35.99,2.42-.39,2.01-2.18-.65-6.1-3.51-8.07-4.83l1.81,3.22-4.23-2.01.4,1.61c-14.29-5.05-20.15-22.01-35-27.09l-14.38-4.36c7.73-.11,15.66,2.56,22.14,6.68,8.22,5.24,12.76,12.81,19.78,18.92.52.46,4.05,3.37,4.44,3.01Z"/>
      <path d="M225.41,74.66c-.08.72,1.38.43,1.78.36,10.57-1.79,18.56-12.53,22.61-21.74.41,4.02-2.37,8.27-4.71,11.42-5.8,7.83-13.62,12.12-23.51,11.56-1.38-.08-3.84-.31-5.04-1.01,1.01-.64,2.26.39,3.32.13.99-.24,6.61-3.18,7.83-3.89,12.54-7.31,13.72-17.62,14.24-30.92.02-.49-.3-1.5.4-1.4,3.28,14.22-2.93,30.01-16.92,35.49Z"/>
      <path d="M198,215.39c-3.19,3.59-7.06,6.88-8.47,11.69l-.31-1.31,1.72-4.33-5.44,7.25,2.22-6.85c-3.17,3.34-7.27,6.24-11.69,7.66l-.4-1.61c-5.26,2.77-11.05,7.19-12.53,13.31-.18.75.17,1.35.09,1.74-.41,1.82-1.34,3.56-1.06,5.5l2.34-5.52,1.28-1.33-1.2,5.85.39,3.82c.7-4.42,2.85-8.54,5.31-12.23.27-.41.81-1.26.74-.07-1.43,2.53-2.73,5.18-3.82,7.88-.23.58-2.55,8.35-3.03,7.66l-.81-7.26-1.82,7.25c-.98-2.36-1.18-5.74-1-8.26.41-5.81,4.04-13.18,9.06-16.35,2.94-1.85,6.82-2.53,9.28-5.23l-.61,2.41c.52.4,5.77-3.35,6.64-4.04.99-.78,4.19-4.23,4.86-4.42,1.84-.52-1.71,3.1-.82,3.62,2.18-2.93,5.59-5.58,9.07-6.85Z"/>
      <path d="M181.46,73.44c-.7,0-.44-1.77-.42-2.23,1.36-24.92-9.63-37.75-31.55-47.43l-15.19-5.97c8.5,1.36,17.48,4.87,25,9.06,16.81,9.37,27.22,27.12,22.16,46.58Z"/>
      <path d="M256.05,236.76l1.21.8c.08-1.68-.43-4.12,1.21-5.24l1.61,5.24,1.62-13.3c.84.17.86,1.96.84,2.62-.13,4.28-1.65,8.91-2.46,13.1l-2.01-4.03c-.19,1.89.53,3.48.37,5.4-.03.37-.19,1.53-.77,1.45l-.81-2.82c-.07,1.53.09,3.1,0,4.63-.06.84-.46,5.22-.59,5.45-.34.61-.83.22-.96-.26-.33-1.26.07-3.28-.09-4.75-.04-.39-.18-1.52-.77-1.45l-2.02,11.69-1.6-3.63c.27,3.35-.85,6.38,0,9.68-.67.74-2.47-2.61-2.83-3.01-.52-.58-4.21-4.42-4.83-3.84l2.42,6.45-3.63-2.41c1.2,1.13,3.1,10.49,1.41,10.47l-2.62-2.41,1.21,5.24-2.81-2.42,1.2,5.24-4.02-3.63c-.5.53,2.71,2.81,2.01,4.03l-5.24-1.61,1.61,4.43c-.75.66-5.59-1.63-6.44-2.42-.37.47,1.58,2.8.4,3.22l-1.6-4.62.98-.62c.52.76,4.45,3.42,5.05,2.81.44-1.74-2.51-3.27-1.01-4.42l4.64,1.59c-.3-1.35-1.81-2.08-2.42-3.02-.35-.53-.4-.92.21-1.01l4.22,2.02-2.41-4.83c2.05-.43,2.74,2.37,4.43,2.22l-3.22-5.44c1.36-.52,4.61,4.33,5.24,3.63.73-2.18-2.59-8.63-2.42-9.87.22-1.58,3.48,1.58,3.62,1.4l-2.82-5.24,3.76.88,4.71,4.36c.06-3.09.19-6.76.93-9.76.1-.4.12-1.22.68-1.12l.81,3.62c.68-4.43,2.23-8.74,2.02-13.3l2.01,4.43v-5.65Z"/>
      <path d="M152.85,269.42l3.06-4.81c.88-1.65,9.85-8.44,11.05-7.29l-2.01,4.43c.24-.32,3.55-2.78,3.23-1l-2.82,6.25c.13.18,3.04-2.51,4.02-1.41l-2.82,4.23,5.64-2.41c.82.86-3.64,5.03-4.03,6.04l7.66-2.61c-1.86,3.02-6.41,3.62-9.68,3.42l4.03-4.83-5.64,2.01,2.61-4.44-3.82,2.42c-.77-.8,3.06-6.19,2.62-7.25l-3.02,3.22c-.1-.79.14-1.5.38-2.24.18-.56,2.48-4.25,1.04-3.8-3.15.97-8.81,7.45-9.96,10.6-.68,1.87-.45,5.71-2.74,5.52.28-5.38.42-10.06-.53-15.4-.53-2.98-1.72-5.76-1.88-8.79l2.12,5.34c.21,1.69,1.51,4.63,1.51,6.16v6.65Z"/>
      <path d="M123.42,237.16c-1.15.2-.66-.27-.91-.89-2.26-5.66-3.9-12.57-5.55-18.47l-.42,3.44c0,1.5.63,2.89.43,4.42-.07.55-.23,1.19-.8.6-2.71-8.15-6.44-16.23-6.45-25,.08-.11.51.21.61.4.73,1.48,1.3,7.08,1.92,9.37.91,3.36,2.46,6.55,3.12,9.99l.81-5.44.79-.6,4.85,16.13c.58-.06.69-1.78.75-2.27.05-.41-.08-5.03,1.06-3.38l5.43,16.75h-.82s-4.82-13.11-4.82-13.11v8.06Z"/>
      <path d="M41.58,217.4c-1.15-.71-1.73-3.06-1.91-4.34-1.18-8.7,4.94-12.95,8.57-19.85,4.78-9.07,5-18.61,5.63-28.64.67.46.58,1.1.63,1.79.64,9.12-.55,19.03-4.65,27.25s-12.12,13.55-8.28,23.78Z"/>
      <path d="M154.06,33.53c6.59,3.44,11.19,9.59,15.08,15.76s8.84,15.4,10.2,22.87c.15.82.72,2.32-.08,2.9-1.73-2.12-2.02-5.22-3.02-7.86-3.35-8.91-9-19.46-15.34-26.6-1.83-2.06-4.42-3.78-6.04-5.65-.39-.45-.97-.66-.8-1.41Z"/>
      <path d="M190.19,76.13c-.38.36-.94.52-1.27.95-.3.06-.26-.39-.19-.6.42-1.3,2.85-4.05,3.69-5.58,6.22-11.28,7.42-23.75,4.16-36.16-.62-2.37-2.06-4.84-2.02-7.26,8.49,12.55,6.6,38.12-4.37,48.65Z"/>
      <path d="M223.39,262.56c-.83.88-2.44-4.53-3.62-4.43l.8,6.85c-.8.27-1.1-4.45-2.01-3.22l-.81,6.05-1.2-2.82c-.65,5.02,1.93,11.56,6.44,14.11.43-.53-2.54-4.96-.81-5.64l2.82,4.24,4.44,2.61c-2.03.19-4.06-.97-5.44-2.41l.6,2.82c-4.97-.34-7.99-6.52-8.87-10.88l-1.2.81c.28-3.25,2.51-5.94,2.01-9.27l1.2,1.21c.13-.92-.2-2.11,0-2.95.08-.32.79-.26.82-.51.13-.93-1.21-2.2-.83-3.39l2.81,2.02-1.2-3.63c.69-.74,2.59,3.07,2.76,3.48.74,1.8.82,3.16,1.27,4.98Z"/>
      <path d="M66.18,269.42l4.63,6.05c6.46,7.35,18.06,13.25,27.96,10.61,1.43-.38,2.26-1.04,3.41-1.43.77-.26.87-.56,1.49.29-3.64,4.07-9.59,3.79-14.59,2.91-9.49-1.69-19.93-9-22.89-18.43Z"/>
      <path d="M187.11,248.05c4.33,1.41,8.54,3.55,13.15,3.98,3.98.36,10.45.12,14.45-.36,4.98-.59,9.52-3.06,13.1-6.44-.84,2.35-3.52,4.25-5.63,5.45-8.76,4.97-20.52,4.26-29.58.54-1.74-.72-4.14-1.9-5.5-3.16Z"/>
      <path d="M183.48,158.93c-3.1-.83-5.39-3.28-8.54-4.16-6.73-1.88-18.87,1-25.42,3.46-3.13,1.17-5.96,2.96-9.17,3.93,4.4-4.3,11.77-6.63,17.72-7.87,8.85-1.84,19.08-3.28,25.41,4.65Z"/>
      <path d="M139.14,249.66l1.61-6.45c.57-.09.63,1.12.69,1.52.28,2.09-.07,4.66,1.12,6.54-.11-.53,1.61-7.28,2.62-6.04.42,7.33,5.05,13.85,4.43,21.37l-5.24-18.95-1.16,4.28-.05,3.78c-1.18.2-.65-.28-.85-.94-.65-2.11-1.25-4.52-1.16-6.72-.59-.07-.72,1.06-.77,1.45-.16,1.45.03,2.94-.04,4.4-.05.37-.53.3-.82,0-1.07-1.08-2.83-13.97-4.02-16.34.92.62,1.38,2.29,1.72,3.31.9,2.67,1.74,6,1.91,8.78Z"/>
      <path d="M225.01,219.82l.6-1.2c.85.58,1.82,2.2,2.64,2.6.6.29,1.41.15,1.97.45,2.69,1.43,6.73,5.26,7.68,8.24l-7.05-6.85c-.05,1.75,2.06,3.31,2.62,5.04.06.3-.42.27-.6.2-1.28-.56-4.6-6.1-6.05-7.25l1.72,4.73-.3,1.31-3.84-6.45,1.21,4.03c-2.81-3.19-5.34-6.96-9.47-8.47-.02-.7-.22-.86.57-.78,2.75.3,7.37,1.47,8.3,4.41Z"/>
      <path d="M201.23,218.21c4.35-4.51,4.11.32,4.63,4.04.36,0,.52-2.91.62-3.43.12-.66-.26-.7.79-.61v4.03s1.21-1.61,1.21-1.61c.07,3.2-.93,7.31-3.62,9.27.2-1.7,1.41-3.16,1.84-4.81.1-.4.51-1.33-.22-1.23-.79,2.73-3.72,6.88-6.37,7.98-1.17.48-2.54.12-3.7,1.3l4.43-6.66c.76-.56.32.74.21,1.02-.28.72-1.27,1.68-.82,2.41,4.62-2.71,6.26-8.19,3.62-12.9-.93-.22-4.4,4.32-4.83,5.24l1.81-5.64-5.23,4.03c.63-2.72,3.41-4.31,5.85-5.24l-.2,2.82Z"/>
      <path d="M196.39,262.16l1.84-3.6,1.79-1.23-.4,4.43c.74.02.85-2.78,1.81-1.61s1.68,5.25,1.82,6.86c1.66.28.53-2.63.45-3.48-.04-.45-.37-1.45.35-1.36,1.02,2.99,1.38,6.12,1.22,9.27l1.81-3.23c.92-1.53.43-4.1,1.81-5.24.21,4.06-1.57,7.88-4.63,10.48l.2-4.84c-.66-.17-1.13,2.9-1.82,1.62l-1.41-7.67-.81,3.22c-2.06-.96-.97-3.73-2.22-5.24l-1.41,3.43c-1.6,1.07-1.97-7.89.4-8.27l-.8,6.45Z"/>
      <path d="M115.35,95.63c-1.16,9.25-7.17,19.92-15.98,23.73-1.47.64-4.9,2.14-5.79.47,6.98-1.66,12.66-6.5,16.19-12.64,1.8-3.12,2.52-6.24,3.89-9.41.29-.68.74-2.41,1.68-2.14Z"/>
      <path d="M256.45,157.72c-2.05-.61-3.25-2.44-5.12-3.54-6.23-3.7-16.23-2.91-22.8-.39l-9.17,5.14c5.53-7.32,16.03-9.23,24.74-8.41,4.59.43,10.48,2.71,12.35,7.2Z"/>
      <path d="M93.59,129.09c2.89-2.24,6.44-3.57,9.4-5.71,3.74-2.7,6.73-6.14,8.53-10.42l3.03-10.88c.72,2.94-.13,6.75-1,9.68-2.6,8.8-11.13,15.48-19.96,17.33Z"/>
      <path d="M222.18,189.58l-1.8-3.24c-3.51-10.29-11.19-25.97-2.03-35.07l-2.43,6.44c-1.41,5.79.77,13.02,2.26,18.73,1.16,4.43,2.73,8.75,4,13.13Z"/>
      <path d="M199.61,275.87l1.21-2.82c2.11.95,1.12,4.4.19,6.05l-.4-2.82-1.81,2.82c-.26-.93.53-3.09-.4-3.62.11,1.6-4.4,6.89-5.45,6.84-1.57-.07.93-3.38.41-4.02-3.02,2.6-6.22,4.69-10.28,5.24,2.14-1.87,4.85-2.61,7.21-4.28,1.97-1.39,3.16-2.75,4.69-4.59.84-.17.66.38.57.97-.21,1.34-1.03,2.52-1.18,3.86,2.43-1.63,3.67-4.38,5.04-6.85l.2,3.22Z"/>
      <path d="M174.62,278.69c.96.74,7.44-4.68,8.06-4.03l-2.22,6.45c1.17-.6,2.42-1,3.55-1.69,1.64-1,2.63-2.45,4.31-3.14-1.82,3.24-5.76,6.46-9.68,5.84l2.02-5.03-7.46,3.62c-1.75-.12,1.81-4.68,2.22-5.23-.26-.22-2.92,1.58-3.61,1.83-.38.14-1.31.53-1.22-.21,1.47.22,6.25-4.41,6.65-4.43.56-.03.44.6.27,1.06-.63,1.82-2.1,3.24-2.89,4.97Z"/>
      <path d="M199.47,206.67c1.55-.02,3.91.58,5.26,1.37.48.29,2.54,1.7,1.09,2.08-1.07.28-4.44-.68-6.4-.36-1.33.22-5.16,3.37-6.49.79-1.21-2.33,4.9-3.86,6.54-3.88Z"/>
      <path d="M245.97,247.04c-.03.14-.55.62-.8.6-.18-6.05-1.06-11.59-4.51-16.66-1.66-2.44-3.97-4.27-5.57-6.72,1.02-.87,6.1,4.58,6.78,5.51,1.43,1.95,4.1,7.72,4.1,10.01,0,1.73.34,5.93,0,7.26Z"/>
      <path d="M207.27,213.37c2.08.15,3.86-.08,5.79-.86,2.71-1.11,7.86-6.94,10.04-6.34.47.13.86.59,1.06,1.03.57,2.27-5.48,3.93-6.96,4.61-2.97,1.36-6.69,4.69-9.93,1.57Z"/>
      <path d="M220.97,230.71c-.33-1.65-1.11-3.16-1.43-4.82-.08-.41-.53-1.32.22-1.23l4.44,7.06.2-3.43,6.25,8.06c-2.3-1.12-3.54-3.29-5.04-5.24l-.4,2.42-3.23-3.22-.2,2.01c-2.55-1.55-5.11-4.72-5.87-7.64-.1-.4-.52-1.33.22-1.23,1.15,2.68,2.72,5.23,4.84,7.25Z"/>
      <path d="M187.92,197.65c-4.59,6.72-3.75,15.65,5.64,16.53-1.36,1.81-4.84.54-6.42-.64-3.06-2.27-3.83-7.02-2.98-10.59.18-.73,2.81-6.22,3.76-5.31Z"/>
      <path d="M212.5,218.21c.58,3.42,1.39,6.1,3.3,9,.76,1.15,2.33,1.95,2.35,3.5-3.11-1.55-4.95-4.86-6.05-8.06-.74-.1-.33.84-.22,1.23.56,2.14,2.1,4.13,2.24,6.43-1.65-1.37-3.07-4.2-3.6-6.27-.31-1.24-.97-2.88.18-3.8l1.81,1.6c.4-1.3-.71-.98-.83-1.79-.11-.72-.29-2.21.83-1.84Z"/>
      <path d="M131.68,24.65c3.8.38,13.08,3.05,16.2,5.16.52.35,1.1.45.92,1.29l-22.97-6.45c1.89.14,3.99-.19,5.85,0Z"/>
      <path d="M242.75,246.84c.72.07.43-1.36.39-1.8-.2-2.61-1.01-5.26-1.46-7.82-.12-.67-.45-1.31.46-.46,1.34,3.76,2.51,8.67,2.16,12.66-.04.4-.16,1.9-.75,1.86l-6.45-15.32c.63-.63,2.8,3.17,3.03,3.62,1.16,2.24,1.96,4.83,2.62,7.26Z"/>
      <path d="M220.97,213.37c2.71-2.1,5.62-2.19,6.58-6.12s-.76-5.56-1.45-8.89c-.11-.56-.73-.8.31-.71,4.74,5.84,3.47,16.08-5.44,15.72Z"/>
      <path d="M235.37,235.26c1.7,1.59,4.03,7.16,4.55,9.55l-4.63-7.26-4.04-4.03.41,2.82-3.02-5.85c-.63-1.96,4.79,3.6,5.03,3.84.5.48,1.3.55,1.7.92Z"/>
      <path d="M212.51,267.4l.8-3.62c1.24,3.33-.35,6.38-.4,9.67-.08.12-.49-.21-.6-.4-.28-.49-1.99-9.79-2.17-11.14-.1-.72-.05-1.45-.04-2.18,1.79,1.94,1.84,5.21,2.42,7.66Z"/>
      <polygon points="133.1 243.21 133.9 242 134.3 247.64 133.18 246.95 129.07 230.71 131.59 236.85 133.1 243.21"/>
      <path d="M262.9,232.32c.18-4.72.61-10.44,1.73-15.01.1-.4.12-1.22.68-1.12.7,2.51-.08,5.56-.47,8.2-.29,1.98-.6,4.67-1.12,6.54-.15.55-.05,1.25-.82,1.39Z"/>
      <path d="M168.57,168.21l-3.87,1.16c-5.18.19-11.95.03-15.88-3.58,6.49,2.23,12.85,3.52,19.75,2.42Z"/>
      <path d="M179.86,167.81c-4.76,4.63-11.56,7.14-18.14,7.65l8.05-2.63,10.09-5.02Z"/>
      <path d="M235.29,171.84c-2.82-.33-7.91-2.59-10.25-4.26-.16-.12-1.16-.8-.63-.98l7.54,3.34,9.59,1.9c-2-.17-4.3.23-6.25,0Z"/>
      <path d="M196.78,169.41l-2.22-8.46-3.82-6.05c.76-.18.95.43,1.41.8,3.56,2.95,5.05,9.23,4.63,13.71Z"/>
      <path d="M251.61,161.76c-1.99,3.66-7.33,5.06-11.29,4.83l6.32-1.93,4.96-2.9Z"/>
      <path d="M221.78,204.09c.35-1.85,1.35-3.59,1.56-5.49.18-1.58-.1-3.05-.16-4.59,2.02,2.83,1.6,8.08-1.41,10.08Z"/>
      <path d="M216.54,219.42l.4-.8.21,2.82-5.04-4.84c1.91.19,3.02,1.79,4.43,2.82Z"/>
      <path d="M132.29,153.69l-7.25,1.61c.83-2.62,5.14-1.3,7.25-1.61Z"/>
      <path d="M190.34,152.88l3.62-5.64c.68,1.22-2.77,6.48-3.62,5.64Z"/>
      <path d="M194.37,260.55c-1.66.36-.37-3.19-.07-3.91.66-1.58,1.88-2.57,1.28-.34-.37,1.39-1.4,2.67-1.21,4.25Z"/>
      <path d="M218.56,149.25c.04-1.85.78-4.21,2.41-5.24-.64,1.67-1.11,3.99-2.41,5.24Z"/>
      <path d="M273.38,245.22l-.42-3.85c1.95-35.44,39.31-51.32,22.26-91.59-4.54-10.72-12.09-19.46-17.88-29.3-.28-.48-4.22-7.07-2.95-7.13,12.21,19.31,28.43,36.03,26.83,60.71-.96,14.86-10.88,27.09-17.56,39.69-5.24,9.89-9.36,20.15-10.28,31.46Z"/>
    </g>
  </g>
</svg>